<svg width="256" height="256" viewBox="0 0 256 256" fill="currentColor" xmlns="http://www.w3.org/2000/svg">
    <path d="M125.978 59.9916C123.267 62.2784 119.909 63.6607 116.373 63.9452C112.837 64.2296 109.301 63.402 106.259 61.5781C103.217 59.7542 100.822 57.0253 99.4083 53.7733C97.995 50.5213 97.6343 46.909 98.3767 43.442C99.1191 39.975 100.928 36.8267 103.549 34.4379C106.17 32.049 109.473 30.5391 112.995 30.1195C116.518 29.6999 120.083 30.3915 123.193 32.0977C126.302 33.8038 128.801 36.439 130.337 39.6345C131.959 43.0332 132.41 46.8723 131.622 50.5541C130.833 54.2359 128.849 57.5539 125.978 59.9916Z"/>
    <path d="M52.5626 43.3127C53.5639 42.887 54.6376 42.6674 55.7221 42.6665C56.8066 42.6656 57.8806 42.8834 58.8826 43.3075C59.8846 43.7316 60.795 44.3535 61.5615 45.1378C62.328 45.9221 62.9356 46.8532 63.3495 47.8779C63.7743 48.8953 63.9955 49.9893 64.0002 51.0954C64.0048 52.2016 63.7928 53.2976 63.3766 54.3186C62.9604 55.3397 62.3484 56.2653 61.5768 57.0408C60.8051 57.8164 59.8894 58.4261 58.8836 58.8342C57.8719 59.3544 56.7663 59.656 55.6356 59.7202C54.5049 59.7844 53.3734 59.6098 52.3117 59.2073C51.2499 58.8048 50.2806 58.1831 49.4643 57.3808C48.6479 56.5785 48.002 55.6129 47.5668 54.5443C47.1316 53.4756 46.9164 52.3267 46.9347 51.1693C46.9529 50.0118 47.2043 48.8707 47.673 47.8169C48.1417 46.7631 48.8178 45.8193 49.659 45.0444C50.5003 44.2695 51.4887 43.68 52.5626 43.3127Z"/>
    <path d="M188.241 127.506C189.43 128.678 190.375 130.08 191.02 131.629C191.666 133.179 191.998 134.844 191.998 136.526C191.998 138.209 191.666 139.874 191.02 141.423C190.375 142.973 189.43 144.375 188.241 145.547C187.102 146.763 185.727 147.726 184.203 148.375C182.679 149.024 181.038 149.346 179.386 149.318C176.836 149.445 174.31 148.768 172.153 147.38C169.997 145.993 168.316 143.963 167.339 141.568C166.363 139.173 166.14 136.531 166.7 134.002C167.261 131.474 168.577 129.183 170.469 127.443C171.636 126.251 173.026 125.309 174.558 124.672C176.089 124.035 177.731 123.716 179.386 123.734C181.035 123.733 182.667 124.066 184.188 124.713C185.708 125.361 187.086 126.31 188.241 127.506Z"/>
    <path d="M251.733 120.658C245.497 102.519 232.941 87.2251 216.356 77.5668C202.386 69.5727 186.361 65.8838 170.298 66.9639C169.397 64.2399 167.963 61.7218 166.08 59.5555C163.804 57.2306 160.769 55.798 157.526 55.5175C154.283 55.237 151.047 56.1273 148.405 58.0268C145.763 59.9262 143.89 62.7091 143.126 65.8702C142.362 69.0313 142.758 72.3613 144.242 75.2559C145.083 76.7125 145.354 78.4289 145.002 80.0735C144.65 81.718 143.701 83.1739 142.337 84.1596C141.358 84.8517 140.212 85.2728 139.018 85.3803C137.823 85.4877 136.621 85.2776 135.534 84.7713C132.948 83.5479 132.064 80.6933 130.295 78.5863C128.251 76.2899 125.677 74.5264 122.796 73.4486C119.915 72.3708 116.815 72.0113 113.763 72.4013C110.45 72.7901 107.296 74.0352 104.611 76.0137C101.927 77.9923 99.8055 80.636 98.4561 83.6838C96.7963 87.4885 96.4367 91.7334 97.4327 95.7627C98.4287 99.792 100.725 103.382 103.967 105.977C106.323 107.556 108.803 108.942 111.382 110.123C112.475 111.144 113.201 112.496 113.447 113.971C113.693 115.445 113.445 116.959 112.743 118.279C112.324 119.127 111.733 119.878 111.008 120.485C110.282 121.092 109.438 121.541 108.528 121.803C107.619 122.065 106.665 122.135 105.727 122.008C104.79 121.881 103.889 121.56 103.082 121.066C101.42 119.96 99.539 119.224 97.5672 118.908C95.5953 118.591 93.5784 118.701 91.6528 119.231C88.3587 120.139 85.4942 122.186 83.5701 125.007C81.6459 127.829 80.787 131.241 81.1464 134.636C81.5059 138.031 83.0603 141.189 85.5327 143.545C88.0051 145.902 91.2348 147.305 94.6463 147.505C97.4519 147.38 100.235 146.947 102.946 146.214C104.557 146.104 106.159 146.523 107.51 147.406C108.86 148.29 109.886 149.589 110.43 151.107C110.984 152.646 111.067 154.315 110.667 155.901C110.267 157.487 109.403 158.918 108.185 160.011C107.093 160.977 105.801 161.691 104.402 162.102C103.003 162.513 101.53 162.611 100.089 162.39C95.4037 162.363 90.8754 164.075 87.3814 167.193C83.8874 170.312 81.6763 174.615 81.1766 179.269C80.6768 183.923 81.924 188.597 84.6765 192.385C87.429 196.172 91.4908 198.805 96.0749 199.772C98.5974 200.33 101.209 200.352 103.741 199.837C106.272 199.321 108.667 198.28 110.77 196.781C111.45 196.305 112.607 195.082 113.423 196.169C124.552 210.178 140.125 219.983 157.576 223.968C171.531 227.261 186.111 226.791 199.824 222.609C213.503 218.399 225.779 210.552 235.337 199.908C244.901 189.362 251.465 176.451 254.348 162.516C257.231 148.58 256.328 134.127 251.733 120.658ZM207.308 176.391C207.465 181.001 206.404 185.57 204.23 189.639C202.056 193.708 198.847 197.133 194.926 199.568C190.352 202.669 184.942 204.304 179.415 204.257C174.797 204.387 170.227 203.307 166.157 201.125C162.087 198.943 158.66 195.735 156.216 191.82C153.101 187.277 151.44 181.897 151.453 176.391C151.453 172.803 152.146 169.249 153.494 165.924L166.556 171.157C165.874 172.818 165.527 174.596 165.536 176.391C165.536 178.176 165.888 179.944 166.572 181.593C167.255 183.242 168.258 184.741 169.521 186.003C170.785 187.265 172.285 188.267 173.935 188.95C175.586 189.633 177.356 189.984 179.142 189.984C182.751 189.984 186.212 188.552 188.764 186.003C191.315 183.454 192.749 179.996 192.749 176.391C192.88 173.607 192.11 170.855 190.554 168.541C188.998 166.228 186.738 164.476 184.109 163.545C182.415 163.949 180.68 164.155 178.938 164.157C175.244 164.251 171.569 163.592 168.138 162.22C164.707 160.849 161.592 158.793 158.982 156.179C156.372 153.566 154.322 150.448 152.957 147.017C151.593 143.586 150.942 139.913 151.045 136.222C151.017 132.529 151.731 128.868 153.145 125.456C154.559 122.044 156.644 118.95 159.277 116.358C161.91 113.765 165.037 111.728 168.473 110.365C171.908 109.002 175.583 108.342 179.278 108.424L187.442 89.1212L198.6 93.8789L191.184 111.143C196.011 113.37 200.079 116.962 202.886 121.474C206.324 126.822 207.778 133.204 206.995 139.512C206.212 145.82 203.241 151.654 198.6 156.001C201.403 158.598 203.628 161.756 205.128 165.269C206.629 168.782 207.371 172.572 207.308 176.391Z"/>
    <path d="M0.214696 68.2708C0.552778 66.4985 1.34473 64.8443 2.51321 63.4696C3.68169 62.0949 5.18674 61.0468 6.88136 60.4276C9.09377 59.5879 11.5226 59.5076 13.7856 60.1996C16.0486 60.8915 18.0173 62.3164 19.3817 64.2498C20.7462 66.1833 21.4289 68.5156 21.3225 70.8797C21.2161 73.2437 20.3266 75.5052 18.794 77.3083C17.2614 79.1114 15.1727 80.3536 12.8567 80.8395C10.5407 81.3253 8.12884 81.0273 6.00082 79.9921C3.87279 78.957 2.1494 77.2436 1.10191 75.1216C0.0544217 72.9996 -0.257691 70.5896 0.214696 68.2708Z"/>
    <path d="M67.1235 77.3897C68.9982 76.7512 71.0109 76.6284 72.9496 77.0342C74.8884 77.4401 76.6815 78.3596 78.1401 79.6959C79.9833 81.6832 81.0254 84.279 81.0665 86.9852C81.1075 89.6914 80.1446 92.3174 78.3625 94.3593C76.5804 96.4013 74.1047 97.7153 71.4104 98.0492C68.716 98.3831 65.9929 97.7135 63.7635 96.1688C62.3497 95.0126 61.247 93.5238 60.5546 91.8366C59.8622 90.1495 59.602 88.3171 59.7975 86.5047C60.0349 84.4522 60.8482 82.5082 62.1441 80.8958C63.44 79.2835 65.1659 78.0682 67.1235 77.3897Z"/>
    <path d="M25.6353 97.6981C25.6749 96.1 26.1781 94.5481 27.0833 93.2322C27.9884 91.9164 29.2563 90.8938 30.7319 90.2893C31.9271 89.7779 33.2227 89.5459 34.5205 89.6108C35.8183 89.6757 37.0845 90.0358 38.2231 90.6639C39.3617 91.2921 40.3429 92.1717 41.0926 93.2364C41.8422 94.301 42.3406 95.5227 42.5501 96.8091C42.7572 98.0363 42.6914 99.2943 42.3573 100.493C42.0231 101.692 41.429 102.802 40.6173 103.743C39.8057 104.685 38.7966 105.435 37.6622 105.939C36.5279 106.444 35.2964 106.691 34.0557 106.663C32.8955 106.699 31.7408 106.488 30.668 106.043C29.5953 105.598 28.6289 104.93 27.8329 104.082C27.0369 103.235 26.4294 102.228 26.0505 101.127C25.6717 100.026 25.5301 98.8577 25.6353 97.6981Z"/>
    <path d="M67.2714 131.45C66.2836 130.896 65.4603 130.091 64.8856 129.115C64.3108 128.139 64.0053 127.029 64.0001 125.896C63.9949 124.764 64.2902 123.65 64.8559 122.669C65.4216 121.689 66.2374 120.875 67.2201 120.313C68.2029 119.75 69.3173 119.458 70.4496 119.467C71.5819 119.476 72.6917 119.785 73.6655 120.363C74.6394 120.94 75.4426 121.766 75.993 122.756C76.5434 123.745 76.8215 124.863 76.7987 125.995C76.7765 127.101 76.4683 128.182 75.9042 129.132C75.3401 130.083 74.5393 130.872 73.5799 131.421C72.6204 131.97 71.535 132.262 70.4295 132.267C69.3239 132.272 68.2359 131.99 67.2714 131.45Z"/>
    <path d="M20.1689 128.369C23.3578 127.647 26.6957 127.991 29.6701 129.349C32.6446 130.707 35.0911 133.003 36.6342 135.886C38.1773 138.768 38.7316 142.078 38.2121 145.306C37.6926 148.534 36.1279 151.503 33.7583 153.756C32.0919 155.34 30.0823 156.518 27.8859 157.198C25.6895 157.878 23.3658 158.042 21.0957 157.677C18.8256 157.312 16.6706 156.427 14.7985 155.092C12.9264 153.757 11.3879 152.008 10.3028 149.981C9.21765 147.954 8.61529 145.703 8.54262 143.405C8.46995 141.107 8.92893 138.823 9.8838 136.732C10.8387 134.64 12.2636 132.797 14.0476 131.347C15.8316 129.896 17.9265 128.877 20.1689 128.369Z"/>
    <path d="M61.9329 153.914C63.4337 153.49 65.023 153.496 66.5205 153.931C68.018 154.366 69.3639 155.213 70.4054 156.376C71.1807 157.264 71.7656 158.303 72.1239 159.427C72.4822 160.551 72.6062 161.737 72.4883 162.911C72.3704 164.086 72.013 165.223 71.4384 166.253C70.8638 167.283 70.0841 168.184 69.1477 168.9C68.2113 169.616 67.1381 170.131 65.9947 170.415C64.8512 170.698 63.6619 170.743 62.5004 170.547C61.3389 170.351 60.23 169.918 59.2424 169.275C58.2547 168.632 57.4095 167.792 56.7589 166.808C56.0464 165.659 55.6141 164.357 55.4972 163.009C55.3802 161.66 55.5818 160.304 56.0856 159.048C56.5895 157.792 57.3814 156.673 58.3972 155.781C59.4131 154.889 60.6244 154.249 61.9329 153.914Z"/>
</svg>
